<?xml version="1.0" encoding="UTF-8"?>
<svg id="_레이어_1" data-name="레이어_1" xmlns="http://www.w3.org/2000/svg" version="1.1" viewBox="0 0 100 20">
  <!-- Generator: Adobe Illustrator 30.1.0, SVG Export Plug-In . SVG Version: 2.1.1 Build 136)  -->
  <defs>
    <style>
      .st0 {
        fill: #f41919;
      }

      .st1 {
        fill: #cee5f2;
      }
    </style>
  </defs>
  <rect class="st1" y="0" width="100" height="20"/>
  <g>
    <path class="st0" d="M6.52,2.71L1.01,18.57c-.03.07.03.15.11.15h5.94c.05,0,.1-.04.11-.09l.43-1.83c.01-.05.06-.09.11-.09h4.24c.05,0,.1.04.11.09l.49,1.84c.01.05.06.09.11.09h5.94c.08,0,.13-.08.11-.15L13.04,2.71s-.06-.08-.11-.08h-6.31s-.09.03-.11.08ZM10.99,12.9h-2.33c-.07,0-.13-.07-.11-.14l1.02-4.68c.01-.05.06-.09.11-.09h.15c.06,0,.11.05.11.11,0,.38.12,1.79,1.15,4.64.03.07-.03.15-.11.15Z"/>
    <path class="st0" d="M28.1,2.63h-7.58c-.06,0-.11.05-.11.11v15.87c0,.06.05.11.11.11h5.41c.06,0,.11-.05.11-.11v-4.62c0-.06.05-.11.11-.11h3.16c3.27,0,5.32-2.05,5.32-5.34,0-3.99-2.78-5.91-6.53-5.91ZM26.62,9.97h-.46c-.06,0-.11-.05-.11-.11v-2.85c0-.06.05-.11.11-.11h.44c.96,0,2.44,0,2.44,1.47s-1.39,1.62-2.42,1.62Z"/>
    <path class="st0" d="M47.91,2.63s-.09.03-.1.07l-1.79,6.24c-.19.68-.3,1.43-.41,2.13h-.07s-.09-.03-.1-.08l-2.18-8.3s-.05-.08-.1-.08h-5.85c-.05,0-.09.04-.1.09l-2.17,15.89c0,.06.04.12.1.12h5.3c.05,0,.1-.04.1-.1l.42-6.78c.06-.61.1-1.24.14-1.85,0-.05.05-.1.1-.1h0c.05,0,.1.04.1.1.05.65.19,1.26.36,1.91,0,0,0,0,0,0l2.07,6.73s.05.07.1.07h3.26s.08-.03.1-.07l2.3-7.14c.17-.51.28-1.07.38-1.6h.11l.53,8.72c0,.05.05.1.1.1h5.3c.06,0,.11-.06.1-.12l-2.22-15.89c0-.05-.05-.09-.1-.09h-5.79Z"/>
    <path class="st0" d="M68.3,7.45c0,1.37.26,2.75.49,4.1h-.11s-.08-.02-.1-.06l-5.19-8.81s-.06-.06-.1-.06h-5.43c-.06,0-.11.05-.11.11v15.87c0,.06.05.11.11.11h5.36c.06,0,.11-.05.11-.11v-5.12c0-1.07-.17-2.11-.36-3.22h.11s.08.02.1.06l5.08,8.34s.06.06.1.06h5.41c.06,0,.11-.05.11-.11V2.74c0-.06-.05-.11-.11-.11h-5.36c-.06,0-.11.05-.11.11v4.71Z"/>
    <path class="st0" d="M84.35,2.23c-5.06,0-8.92,3.3-8.92,8.55s3.97,8.34,8.88,8.34c2.5,0,5.12-1.15,6.83-3,1.87-2.02,1.9-4.18,1.94-6.76,0-.06-.05-.12-.11-.12h-8.8c-.06,0-.11.05-.11.11v3.57c0,.06.05.11.11.11h2.37c.08,0,.14.08.11.16-.35.89-1.45,1.39-2.32,1.39-1.9,0-3.15-1.81-3.15-3.58,0-1.94,1.3-3.74,3.39-3.74.94,0,1.77.43,2.22,1.24h.02s4.62-3.07,4.62-3.07c.06-.04.07-.12.02-.17-1.68-1.94-4.75-3.05-7.09-3.05Z"/>
    <path class="st0" d="M96.22,13.85c-1.36,0-2.78.99-2.78,2.67s1.42,2.61,2.78,2.61,2.78-.95,2.78-2.61-1.42-2.67-2.78-2.67Z"/>
  </g>
</svg>