<?xml version="1.0" encoding="UTF-8"?>
<svg id="_레이어_1" data-name="레이어_1" xmlns="http://www.w3.org/2000/svg" version="1.1" viewBox="0 0 400 65">
  <!-- Generator: Adobe Illustrator 30.1.0, SVG Export Plug-In . SVG Version: 2.1.1 Build 136)  -->
  <path d="M35.56,2.87c-.05-.13-.17-.22-.31-.22h-17.94c-.14,0-.26.09-.31.22L1.33,48c-.07.21.08.43.31.43h16.89c.15,0,.28-.1.32-.25l1.22-5.2c.03-.15.17-.25.32-.25h12.06c.15,0,.28.1.32.24l1.39,5.22c.04.14.17.24.32.24h16.89c.23,0,.38-.22.31-.44L35.56,2.87ZM29.77,31.85h-6.68c-.21,0-.36-.19-.32-.4l2.89-13.31c.03-.15.17-.26.32-.26h.75c.3,1.94.61,3.95,1.09,5.89l.99,4.1c.34,1.08.74,2.26,1.2,3.54.07.19-.05.4-.25.43h.01Z"/>
  <polygon points="29.77 31.86 29.77 31.85 29.71 31.86 29.77 31.86"/>
  <path d="M26.74,18.21c0,.31.04.84.14,1.63l1.94,8.04-.99-4.1c-.49-1.94-.79-3.95-1.09-5.89h-.33c.18,0,.32.14.33.32Z"/>
  <path d="M28.82,27.88l-1.94-8.04c.21,1.58.72,4.19,1.94,8.04Z"/>
  <path d="M78.37,2.65h-21.55c-.18,0-.33.15-.33.33v45.13c0,.18.15.33.33.33h15.38c.18,0,.33-.15.33-.33v-13.13c0-.18.15-.33.33-.33h8.98c9.29,0,15.12-5.83,15.12-15.18,0-11.35-7.89-16.82-18.58-16.82h-.01ZM74.16,23.52h-1.31c-.18,0-.33-.15-.33-.33v-8.11c0-.18.15-.33.33-.33h1.25c2.73,0,6.94-.02,6.94,4.17s-3.97,4.59-6.88,4.59h0Z"/>
  <path d="M74.1,14.76h-1.25c-.18,0-.33.15-.33.33v.08h1.58c2.73,0,6.94.18,6.94,3.76,0-4.19-4.21-4.17-6.94-4.17Z"/>
  <path d="M74.16,23.12h-1.64v.08c0,.18.15.33.33.33h1.31c2.91,0,6.88-.4,6.88-4.59,0,3.7-3.97,4.19-6.88,4.19h0Z"/>
  <path d="M126.51,1.93c-13.91,0-25.32,9.35-25.32,23.74s11.35,23.5,25.32,23.5,25.32-8.8,25.32-23.5S140.42,1.93,126.51,1.93ZM126.51,34.71c-5.04,0-8.56-3.58-8.56-8.8,0-4.86,3.28-8.93,8.56-8.93s8.56,4.07,8.56,8.93c0,5.22-3.52,8.8-8.56,8.8Z"/>
  <path d="M181.49,1.93c-13.9,0-25.32,9.35-25.32,23.74s11.35,23.5,25.32,23.5,25.32-8.8,25.32-23.5S195.39,1.93,181.49,1.93ZM181.49,34.71c-5.04,0-8.56-3.58-8.56-8.8,0-4.86,3.28-8.93,8.56-8.93s8.56,4.07,8.56,8.93c0,5.22-3.52,8.8-8.56,8.8Z"/>
  <path d="M262.44,2.65h-16.47c-.13,0-.25.09-.28.21l-5.1,17.76c-.55,1.94-.85,4.07-1.15,6.07h-.2c-.13,0-.25-.09-.28-.22l-6.2-23.61c-.03-.13-.15-.22-.28-.22h-16.64c-.15,0-.27.11-.29.25l-6.19,45.2c-.03.18.11.34.29.34h15.07c.15,0,.28-.12.29-.27l1.19-19.28c.17-1.73.29-3.52.41-5.25,0-.15.14-.27.29-.27s.28.12.29.27c.14,1.84.55,3.58,1.01,5.43v.02l5.88,19.15c.04.12.15.21.28.21h9.28c.13,0,.24-.08.28-.2l6.55-20.32c.49-1.46.79-3.04,1.09-4.55h.3l1.49,24.81c0,.15.14.27.29.27h15.07c.18,0,.32-.16.29-.34l-6.31-45.2c-.02-.14-.14-.25-.29-.25h.04Z"/>
  <rect x="274.79" y="2.65" width="16.64" height="45.78" rx=".33" ry=".33"/>
  <path d="M344.08,2.65h-15.26c-.18,0-.33.15-.33.33v13.4c0,3.89.73,7.83,1.4,11.66h-.3c-.12,0-.22-.06-.28-.16l-14.75-25.06c-.06-.1-.17-.16-.28-.16h-15.46c-.18,0-.33.15-.33.33v45.13c0,.18.15.33.33.33h15.26c.18,0,.33-.15.33-.33v-14.55c0-3.04-.49-6.01-1.03-9.17h.3c.11,0,.22.06.28.16l14.44,23.73c.06.1.17.16.28.16h15.4c.18,0,.33-.15.33-.33V2.98c0-.18-.15-.33-.33-.33Z"/>
  <path d="M398.98,21.48h-25.03c-.18,0-.33.15-.33.33v10.15c0,.18.15.33.33.33h6.74c.23,0,.39.23.31.45-1,2.52-4.12,3.96-6.59,3.96-5.4,0-8.97-5.14-8.97-10.18,0-5.53,3.68-10.63,9.63-10.63,2.67,0,5.04,1.21,6.32,3.52l.05-.02,13.14-8.71c.16-.11.2-.34.07-.49-4.77-5.51-13.52-8.68-20.18-8.68-14.39,0-25.38,9.39-25.38,24.33s11.29,23.72,25.26,23.72c7.1,0,14.57-3.26,19.43-8.54,5.32-5.74,5.4-11.9,5.52-19.22,0-.18-.14-.33-.33-.33h0Z"/>
</svg>