<?xml version="1.0" encoding="UTF-8"?>
<svg id="_레이어_1" data-name="레이어_1" xmlns="http://www.w3.org/2000/svg" version="1.1" viewBox="0 0 400 66">
  <!-- Generator: Adobe Illustrator 30.1.0, SVG Export Plug-In . SVG Version: 2.1.1 Build 136)  -->
  <path d="M35.14,1.68c-.05-.13-.17-.22-.31-.22h-17.98c-.14,0-.26.09-.31.22L.82,46.93c-.07.21.08.44.31.44h16.93c.15,0,.28-.1.32-.25l1.22-5.22c.03-.15.17-.25.32-.25h12.09c.15,0,.28.1.32.24l1.39,5.24c.04.14.17.24.32.24h16.94c.23,0,.38-.22.31-.44L35.14,1.68ZM29.34,30.74h0s-.06,0-.06,0h-6.63c-.21,0-.36-.19-.32-.4l2.9-13.35c.03-.15.17-.26.32-.26h.75c.3,1.95.61,3.96,1.1,5.9l.99,4.11c.34,1.08.74,2.26,1.2,3.55.07.19-.05.4-.25.43Z"/>
  <polygon points="29.34 30.75 29.34 30.74 29.28 30.75 29.34 30.75"/>
  <path d="M26.3,17.07c0,.31.04.84.14,1.63l1.94,8.06-.99-4.11c-.49-1.95-.79-3.96-1.1-5.9h-.33c.18,0,.32.14.33.32Z"/>
  <path d="M28.38,26.76l-1.94-8.06c.21,1.59.72,4.2,1.94,8.06Z"/>
  <path d="M78.06,1.47h-21.61c-.18,0-.33.15-.33.33v45.24c0,.18.15.33.33.33h15.42c.18,0,.33-.15.33-.33v-13.16c0-.18.15-.33.33-.33h9.01c9.31,0,15.16-5.84,15.16-15.22,0-11.38-7.91-16.86-18.63-16.86ZM73.84,22.39h-1.32c-.18,0-.33-.15-.33-.33v-8.13c0-.18.15-.33.33-.33h1.26c2.74,0,6.96-.02,6.96,4.18s-3.98,4.61-6.9,4.61Z"/>
  <path d="M73.78,13.6h-1.26c-.18,0-.33.15-.33.33v.08h1.58c2.74,0,6.96.18,6.96,3.77,0-4.2-4.22-4.18-6.96-4.18Z"/>
  <path d="M73.84,21.98h-1.64v.08c0,.18.15.33.33.33h1.32c2.92,0,6.9-.4,6.9-4.61,0,3.71-3.98,4.2-6.9,4.2Z"/>
  <path d="M126.32.74c-13.94,0-25.38,9.37-25.38,23.8s11.38,23.56,25.38,23.56,25.38-8.83,25.38-23.56S140.26.74,126.32.74ZM126.32,33.61c-5.05,0-8.58-3.59-8.58-8.83,0-4.87,3.29-8.95,8.58-8.95s8.58,4.08,8.58,8.95c0,5.24-3.53,8.83-8.58,8.83Z"/>
  <path d="M181.44.74c-13.94,0-25.38,9.37-25.38,23.8s11.38,23.56,25.38,23.56,25.38-8.83,25.38-23.56S195.38.74,181.44.74ZM181.44,33.61c-5.05,0-8.58-3.59-8.58-8.83,0-4.87,3.29-8.95,8.58-8.95s8.58,4.08,8.58,8.95c0,5.24-3.53,8.83-8.58,8.83Z"/>
  <path d="M262.59,1.47h-16.51c-.13,0-.25.09-.28.21l-5.11,17.81c-.55,1.95-.85,4.08-1.16,6.09h-.2c-.13,0-.25-.09-.29-.22l-6.22-23.67c-.03-.13-.15-.22-.28-.22h-16.68c-.15,0-.27.11-.29.25l-6.2,45.31c-.03.18.11.34.29.34h15.11c.15,0,.28-.12.29-.27l1.19-19.33c.17-1.74.29-3.53.41-5.27.01-.15.14-.27.29-.27s.28.12.29.27c.14,1.84.55,3.59,1.01,5.44,0,0,0,.01,0,.02l5.9,19.2c.04.12.15.21.28.21h9.31c.13,0,.24-.08.28-.2l6.57-20.37c.49-1.46.79-3.04,1.1-4.57h.3l1.5,24.87c.01.15.14.27.29.27h15.11c.18,0,.32-.16.29-.34l-6.32-45.31c-.02-.14-.15-.25-.29-.25Z"/>
  <rect x="274.97" y="1.47" width="16.68" height="45.9" rx=".33" ry=".33"/>
  <path d="M344.44,1.47h-15.29c-.18,0-.33.15-.33.33v13.43c0,3.9.73,7.85,1.4,11.69h-.3c-.12,0-.22-.06-.28-.16l-14.78-25.12c-.06-.1-.17-.16-.28-.16h-15.5c-.18,0-.33.15-.33.33v45.24c0,.18.15.33.33.33h15.29c.18,0,.33-.15.33-.33v-14.59c0-3.04-.49-6.03-1.03-9.19h.3c.11,0,.22.06.28.16l14.48,23.79c.06.1.17.16.28.16h15.44c.18,0,.33-.15.33-.33V1.79c0-.18-.15-.33-.33-.33Z"/>
  <path d="M399.47,20.34h-25.09c-.18,0-.33.15-.33.33v10.18c0,.18.15.33.33.33h6.76c.23,0,.39.23.31.45-1,2.52-4.13,3.97-6.6,3.97-5.42,0-8.99-5.15-8.99-10.21,0-5.54,3.69-10.65,9.66-10.65,2.68,0,5.05,1.22,6.33,3.53l.05-.02,13.17-8.73c.16-.11.2-.34.07-.49-4.78-5.53-13.55-8.7-20.23-8.7-14.43,0-25.45,9.42-25.45,24.39s11.32,23.78,25.32,23.78c7.12,0,14.61-3.27,19.48-8.56,5.34-5.76,5.42-11.93,5.53-19.27,0-.18-.14-.33-.33-.33Z"/>
</svg>