<?xml version="1.0" encoding="UTF-8"?>
<svg id="_레이어_1" data-name="레이어_1" xmlns="http://www.w3.org/2000/svg" version="1.1" viewBox="0 0 120 45">
  <!-- Generator: Adobe Illustrator 30.1.0, SVG Export Plug-In . SVG Version: 2.1.1 Build 136)  -->
  <defs>
    <style>
      .st0 {
        fill: #fff;
      }
    </style>
  </defs>
  <path d="M22.5,0h75C109.93,0,120,10.07,120,22.5h0c0,12.43-10.07,22.5-22.5,22.5H22.5C10.07,45,0,34.93,0,22.5h0C0,10.07,10.07,0,22.5,0Z"/>
  <path class="st0" d="M85.91,17.47l-2.69,6.13-3.04-6.13h-2.34l4.31,8.51-1.78,3.97h2.27l5.54-12.48h-2.27ZM76.54,26.95h-2.23v-.89c-.8.69-1.77,1.08-2.93,1.08-2.66,0-4.75-2.17-4.75-4.93s2.08-4.93,4.75-4.93c1.16,0,2.12.38,2.93,1.08v-.89h2.23v9.48ZM74.57,22.21c0-1.79-1.25-3.14-2.9-3.14s-2.9,1.36-2.9,3.14,1.25,3.14,2.9,3.14,2.9-1.35,2.9-3.14ZM55.58,29.95h2.32v-3.8c.78.64,1.72,1,2.83,1,2.66,0,4.75-2.17,4.75-4.93s-2.08-4.93-4.75-4.93c-1.16,0-2.12.38-2.93,1.08v-.89h-2.23v12.47h.01ZM60.45,19.07c1.65,0,2.9,1.36,2.9,3.14s-1.25,3.14-2.9,3.14-2.9-1.36-2.9-3.14c-.01-1.79,1.24-3.14,2.9-3.14Z"/>
  <path class="st0" d="M51.42,22.5c0,5.34-4.33,9.67-9.67,9.67s-9.68-4.33-9.68-9.67,4.33-9.68,9.68-9.68c5.34,0,9.67,4.34,9.67,9.68ZM43.36,17.95v4.87l-3.38-4.87h-2.79v9.09h2.93v-4.87l3.38,4.87h2.79v-9.09h-2.93Z"/>
</svg>